<?xml version="1.0" encoding="UTF-8"?>
<svg version="1.1" xmlns="http://www.w3.org/2000/svg" width="325" height="325">
<path d="M0 0 C1.13953125 0.37382812 2.2790625 0.74765625 3.453125 1.1328125 C31.14356461 11.04100298 52.44766131 30.81696239 65.32202148 57.05761719 C68.21779234 63.2044049 70.38528551 69.39293152 72 76 C72.29777344 77.18464844 72.59554687 78.36929688 72.90234375 79.58984375 C78.7120582 105.96112822 74.44949311 133.12521251 61 156.5 C44.70991893 181.89713426 21.98139061 198.86617719 -7 207 C-7.89976562 207.25523437 -8.79953125 207.51046875 -9.7265625 207.7734375 C-36.9869452 214.23723958 -65.46749215 207.22698492 -89 193 C-93.14031342 190.18580461 -97.08371637 187.11574918 -101 184 C-102.30904297 182.98292969 -102.30904297 182.98292969 -103.64453125 181.9453125 C-107.22551542 178.98788279 -110.04946686 175.57380467 -113 172 C-113.78890625 171.06027344 -114.5778125 170.12054688 -115.390625 169.15234375 C-133.0641677 147.54147342 -140.87311164 119.96479246 -138.5625 92.1796875 C-134.96262696 62.32106317 -120.70663116 36.21479061 -97.17578125 17.4296875 C-70.15007064 -3.24680942 -32.62961482 -10.90028617 0 0 Z M-76 16 C-76.95390625 16.49113281 -77.9078125 16.98226562 -78.890625 17.48828125 C-102.35374446 30.35614388 -118.22470613 52.03150655 -125.76660156 77.5222168 C-132.63899022 103.20761571 -127.69142806 129.05984261 -115.37890625 152.0234375 C-110.88745168 159.54150773 -105.11153351 165.79470516 -99 172 C-98.23042969 172.7940625 -97.46085937 173.588125 -96.66796875 174.40625 C-76.96539139 193.47109487 -51.40322356 199.55708738 -24.8125 199.28125 C-16.66623387 199.05769714 -9.69637247 197.6681932 -2 195 C-0.91460937 194.66097656 0.17078125 194.32195312 1.2890625 193.97265625 C19.19813113 187.85045639 36.72669249 175.03258596 47 159 C47.56976563 158.16082031 48.13953125 157.32164062 48.7265625 156.45703125 C63.32176534 134.44001249 68.28345699 108.8426213 63.34008789 82.98046875 C58.51730401 59.79202449 45.58455532 37.81618273 26 24 C22.14843334 25.56915679 19.88324709 28.05199913 17 31 C15.24261528 32.74652429 13.4847811 34.49259642 11.7265625 36.23828125 C10.21086753 37.7465923 8.69565937 39.2553905 7.18066406 40.7644043 C6.1480389 41.7920057 5.11451732 42.81870714 4.08007812 43.84448242 C-1.18301312 49.064832 -6.3425179 54.30373259 -11.16259766 59.94213867 C-15.6797461 65.0012729 -20.62840311 69.67585856 -25.45703125 74.43652344 C-30.67943268 79.59206124 -35.80557786 84.77139582 -40.57861328 90.3515625 C-42.28022655 92.32498964 -44.076432 94.17691298 -45.9375 96 C-46.52402344 96.5775 -47.11054688 97.155 -47.71484375 97.75 C-48.13894531 98.1625 -48.56304687 98.575 -49 99 C-54.18097098 94.72006745 -58.89924793 90.12717347 -63.62109375 85.34765625 C-66.29558532 82.70829758 -69.05313658 80.32647112 -72 78 C-70.42114525 74.10568195 -67.75898265 71.51801213 -64.80078125 68.640625 C-64.03087105 67.87851715 -64.03087105 67.87851715 -63.2454071 67.10101318 C-61.60580301 65.47916351 -59.95968847 63.8641434 -58.3125 62.25 C-56.15931964 60.13367271 -54.00940144 58.01411176 -51.86328125 55.890625 C-51.34214752 55.37508057 -50.82101379 54.85953613 -50.28408813 54.32836914 C-46.93257488 50.99006164 -43.78510689 47.54305165 -40.71948242 43.94433594 C-36.41592033 39.07800505 -31.65508735 34.62104174 -27.02734375 30.06640625 C-22.6658406 25.74690794 -18.46050532 21.37507833 -14.48413086 16.69677734 C-13.07590441 15.08678001 -11.60593039 13.60431083 -10.0625 12.125 C-7.76784154 10.25436301 -7.76784154 10.25436301 -8 8 C-31.56452649 3.1359795 -54.39728445 4.85524646 -76 16 Z " fill="#2C4F3D" transform="translate(194,31)"/>
<path d="M0 0 C4.52637453 1.42257485 6.72587582 3.62470906 10 7 C11.18098157 8.16281521 12.36474463 9.32280998 13.55078125 10.48046875 C14.80476385 11.71606836 16.05866883 12.95174673 17.3125 14.1875 C17.95767578 14.81591797 18.60285156 15.44433594 19.26757812 16.09179688 C19.87666016 16.69443359 20.48574219 17.29707031 21.11328125 17.91796875 C21.66798096 18.46219482 22.22268066 19.0064209 22.79418945 19.56713867 C24 21 24 21 24 23 C21.7211138 25.10358726 20.08081939 25.97966134 17.05078125 26.7421875 C13.14323324 28.35323802 12.52915306 29.82624393 10.8125 33.625 C10.30332031 34.70007813 9.79414062 35.77515625 9.26953125 36.8828125 C8.21305654 39.47686426 7.58885462 41.78614829 7 44.5 C6.3359375 46.39453125 6.3359375 46.39453125 5 48 C1.66035393 49.41221948 -1.64050292 50.25038947 -5.16796875 51.0859375 C-14.6387161 53.34501485 -22.78277841 57.09513809 -30.7578125 62.64453125 C-33 64 -33 64 -36 64 C-36 63.01 -36 62.02 -36 61 C-36.99 61 -37.98 61 -39 61 C-38.38659192 56.91559985 -37.03146933 53.77669499 -35.125 50.125 C-30.68366181 41.89232165 -30.68366181 41.89232165 -28.4296875 32.9140625 C-27.12306538 21.91739893 -27.12306538 21.91739893 -23.23583984 18.40673828 C-19.04840482 15.6706357 -14.55286776 13.78107379 -9.93920898 11.88964844 C-7.23054304 10.64699721 -5.13940529 9.06032222 -3 7 C-2.27034634 4.43717258 -2.27034634 4.43717258 -2 2 C-1.34 1.34 -0.68 0.68 0 0 Z M-12 24 C-14.13347819 26.7024057 -15.0439828 28.09835252 -14.875 31.5625 C-13.58403905 35.2025194 -13.58403905 35.2025194 -11 38 C-8.00977237 38.6373487 -5.051062 38.87207287 -2 39 C-2.99 38.34 -3.98 37.68 -5 37 C-7.75 34.8125 -7.75 34.8125 -10 32 C-10.07383065 27.79165269 -9.66802141 25.78947985 -6.9375 22.5625 C-6.298125 22.046875 -5.65875 21.53125 -5 21 C-8.01303694 21 -9.56543349 22.27798954 -12 24 Z M-18 41 C-21.96 44.96 -25.92 48.92 -30 53 C-29.67 53.66 -29.34 54.32 -29 55 C-25.04 51.04 -21.08 47.08 -17 43 C-17.33 42.34 -17.66 41.68 -18 41 Z " fill="#CBA953" transform="translate(118,111)"/>
<path d="M0 0 C6.47778077 1.16385659 12.07435726 3.16391756 18 6 C13.67986508 11.17746402 9.12609088 15.96913347 4.3125 20.6875 C2.99371558 21.98065207 1.6772275 23.27615101 0.36328125 24.57421875 C-0.21123779 25.13713623 -0.78575684 25.70005371 -1.37768555 26.2800293 C-3.08201149 28.00974713 -3.08201149 28.00974713 -4.58520508 30.21411133 C-5.28552856 31.09812622 -5.28552856 31.09812622 -6 32 C-6.66 32 -7.32 32 -8 32 C-8.34768433 32.83772949 -8.34768433 32.83772949 -8.70239258 33.69238281 C-10.34019671 36.60499328 -12.37538715 38.58190794 -14.76171875 40.921875 C-15.23060013 41.38555481 -15.69948151 41.84923462 -16.18257141 42.32696533 C-17.67951598 43.80617025 -19.18295749 45.27852701 -20.6875 46.75 C-22.65321237 48.67879306 -24.61563227 50.61084608 -26.57421875 52.546875 C-27.28914238 53.25348267 -27.28914238 53.25348267 -28.01850891 53.97436523 C-31.29679084 57.23884545 -34.36810575 60.62527192 -37.37084961 64.14160156 C-40.2385131 67.41279211 -43.34157559 70.44666502 -46.4375 73.5 C-47.07365234 74.13164063 -47.70980469 74.76328125 -48.36523438 75.4140625 C-49.90782806 76.94505774 -51.45357314 78.47287667 -53 80 C-61.44646925 73.84965831 -61.44646925 73.84965831 -65 70 C-63.41163081 66.05924327 -60.68430748 63.44402624 -57.6953125 60.53515625 C-57.17492401 60.01996933 -56.65453552 59.50478241 -56.11837769 58.97398376 C-54.45861585 57.33198012 -52.79232257 55.69682298 -51.125 54.0625 C-49.46567624 52.4309201 -47.80788194 50.79785945 -46.15304565 49.16172791 C-45.12519114 48.1459925 -44.09467568 47.13294018 -43.06106567 46.12306213 C-40.79709239 43.89029963 -38.7348761 41.66013714 -36.77685547 39.15014648 C-36.19049316 38.44059814 -35.60413086 37.7310498 -35 37 C-34.34 37 -33.68 37 -33 37 C-32.75378906 36.42709229 -32.50757813 35.85418457 -32.25390625 35.26391602 C-30.79385813 32.62781277 -29.09233374 30.8825346 -26.9375 28.77734375 C-26.14085937 27.99166016 -25.34421875 27.20597656 -24.5234375 26.39648438 C-23.69070312 25.58501953 -22.85796875 24.77355469 -22 23.9375 C-20.35194238 22.32388321 -18.70601136 20.70809078 -17.0625 19.08984375 C-16.33160156 18.37691162 -15.60070312 17.66397949 -14.84765625 16.92944336 C-12.83135467 14.93644442 -12.83135467 14.93644442 -11 12 C-10.34 12 -9.68 12 -9 12 C-8.61714844 11.14148438 -8.61714844 11.14148438 -8.2265625 10.265625 C-6.86912841 7.75826267 -5.28025896 5.8669544 -3.375 3.75 C-2.74335938 3.04359375 -2.11171875 2.3371875 -1.4609375 1.609375 C-0.97882813 1.07828125 -0.49671875 0.5471875 0 0 Z " fill="#325943" transform="translate(186,39)"/>
<path d="M0 0 C4.19054529 1.39684843 4.93325035 3.67309841 6.9140625 7.47265625 C9.78221604 14.14781935 9.36539728 19.98324318 6.9921875 26.77734375 C4.28300276 32.84634422 -0.74190433 35.31476779 -6.6015625 37.796875 C-20.36597936 42.66979499 -37.65699665 46.53472125 -51.8125 41.25 C-60.23174599 37.12747266 -60.23174599 37.12747266 -61.8125 32.75 C-61.874375 32.1725 -61.93625 31.595 -62 31 C-62.66 31 -63.32 31 -64 31 C-64.20625 31.556875 -64.4125 32.11375 -64.625 32.6875 C-67.88988795 38.17844792 -73.09790171 40.99928872 -79 43 C-84.07485572 44.02596361 -88.56721641 44.04725261 -93.69921875 43.265625 C-101.27292 42.39124183 -108.81149721 42.32520827 -116 45 C-116.66 43.68 -117.32 42.36 -118 41 C-113.14209382 36.86178362 -108.65556391 36.87553849 -102.44921875 37.04296875 C-101.19302734 37.06423828 -99.93683594 37.08550781 -98.64257812 37.10742188 C-96.01730895 37.16057547 -93.39225148 37.22557656 -90.76757812 37.30273438 C-82.33283096 37.41922449 -76.75139933 36.98250068 -70.1171875 31.421875 C-66.22708469 26.18613915 -64.1631941 20.56720775 -62.26708984 14.37207031 C-61.58984375 12.31640625 -61.58984375 12.31640625 -60 9 C-57.31640625 8.02734375 -57.31640625 8.02734375 -55 8 C-55.14308594 9.19496094 -55.14308594 9.19496094 -55.2890625 10.4140625 C-56.47988623 18.54725282 -56.47988623 18.54725282 -54 26 C-42.32304294 32.55365964 -26.48056535 30.22656663 -14.07421875 27.04296875 C-8.66166843 25.51693819 -3.32949481 23.79250276 2 22 C1.55527344 21.33613281 1.11054688 20.67226562 0.65234375 19.98828125 C0.08644531 19.10527344 -0.47945313 18.22226563 -1.0625 17.3125 C-1.63097656 16.44238281 -2.19945312 15.57226562 -2.78515625 14.67578125 C-4.50794912 10.88120532 -3.64990041 8.74092493 -2.24609375 4.98046875 C-1.49739583 3.3203125 -0.74869792 1.66015625 0 0 Z " fill="#2D4F3D" transform="translate(203,136)"/>
<path d="M0 0 C5.95619507 4.39623922 8.17130577 11.16176502 9.38671875 18.2578125 C10.00490668 29.81153179 4.38516577 41.53324703 -2.84765625 50.21875 C-8.51531169 56.2582397 -14.60057045 61.14510619 -23.125 61.625 C-30.43557333 61.31302674 -37.22175718 58.56127934 -44 56 C-44 54.68 -44 53.36 -44 52 C-43.04480469 51.97421875 -42.08960938 51.9484375 -41.10546875 51.921875 C-26.47120674 51.27989342 -14.81083606 47.46719417 -4.5625 36.5 C-1.73547435 33.17838538 0.10657832 30.35543071 1 26 C0.0409375 27.0209375 0.0409375 27.0209375 -0.9375 28.0625 C-4.66085238 30.41809028 -6.58936673 30.45034991 -10.83984375 29.7265625 C-13.654474 28.7798695 -15.50118189 27.31663988 -17.1875 24.86328125 C-19.13068865 20.40702651 -18.68669141 16.14373207 -17.23046875 11.59765625 C-15.09313277 6.4799713 -12.59665797 1.99077111 -8.125 -1.4375 C-4.84371159 -2.30607634 -3.03526501 -1.42471623 0 0 Z M-9 11 C-9.66 11.66 -10.32 12.32 -11 13 C-11 13.99 -11 14.98 -11 16 C-8.03 16.33 -5.06 16.66 -2 17 C-2.5739739 12.79819816 -2.5739739 12.79819816 -6 11 C-6.99 11 -7.98 11 -9 11 Z " fill="#315241" transform="translate(236,130)"/>
<path d="M0 0 C2.79962929 2.43339871 4.03929069 4.92758708 5.5 8.3125 C6.87263588 11.44758377 8.25956711 14.51018363 9.8125 17.5625 C11 20 11 20 11 22 C11.76183594 21.32904297 11.76183594 21.32904297 12.5390625 20.64453125 C16.64642275 17.03713058 20.78321121 13.47885075 25 10 C23.35158242 15.61960538 21.6035533 20.29536097 18 25 C17.52949219 25.62648438 17.05898437 26.25296875 16.57421875 26.8984375 C8.93588422 36.41445331 -1.55592541 41.34261534 -13 45 C-13.66 45 -14.32 45 -15 45 C-15.103125 45.86625 -15.20625 46.7325 -15.3125 47.625 C-16.06131828 51.30101702 -16.89808018 53.88336026 -19 57 C-22.62816543 58.1338017 -24.38597653 58.20467449 -28 57 C-27.36738317 53.30973516 -26.42909641 50.57274103 -25 47 C-29.62 47 -34.24 47 -39 47 C-39 46.34 -39 45.68 -39 45 C-36.37605694 44.16320723 -33.75095616 43.33043058 -31.125 42.5 C-30.37863281 42.26152344 -29.63226563 42.02304688 -28.86328125 41.77734375 C-23.2265625 40 -23.2265625 40 -21 40 C-20.67 38.741875 -20.34 37.48375 -20 36.1875 C-15.95593806 22.94036253 -11.45654053 10.47266473 -1 1 C-0.67 0.67 -0.34 0.34 0 0 Z M-4 19 C-4.81604999 20.9151579 -5.62770632 22.83218834 -6.4375 24.75 C-6.88996094 25.81734375 -7.34242188 26.8846875 -7.80859375 27.984375 C-8.73979553 30.3413841 -9.4784072 32.52992835 -10 35 C-5.94718288 33.77472971 -2.55639236 32.30119506 1 30 C0.39301257 25.87248551 -1.03810791 22.6678852 -3 19 C-3.33 19 -3.66 19 -4 19 Z " fill="#D89164" transform="translate(210,71)"/>
<path d="M0 0 C3.94627979 2.10468255 6.98328539 5.04297697 9.8125 8.5 C9.8125 9.16 9.8125 9.82 9.8125 10.5 C7.5336138 12.60358726 5.89331939 13.47966134 2.86328125 14.2421875 C-1.04426676 15.85323802 -1.65834694 17.32624393 -3.375 21.125 C-4.13876953 22.73761719 -4.13876953 22.73761719 -4.91796875 24.3828125 C-5.97444346 26.97686426 -6.59864538 29.28614829 -7.1875 32 C-7.8515625 33.89453125 -7.8515625 33.89453125 -9.1875 35.5 C-12.52714607 36.91221948 -15.82800292 37.75038947 -19.35546875 38.5859375 C-28.8262161 40.84501485 -36.97027841 44.59513809 -44.9453125 50.14453125 C-47.1875 51.5 -47.1875 51.5 -50.1875 51.5 C-49.61647488 47.75608878 -48.0928201 46.03065411 -45.44140625 43.390625 C-44.68666016 42.63652344 -43.93191406 41.88242188 -43.15429688 41.10546875 C-41.96416992 39.93951172 -41.96416992 39.93951172 -40.75 38.75 C-39.96044922 37.95722656 -39.17089844 37.16445312 -38.35742188 36.34765625 C-32.45440915 30.5 -32.45440915 30.5 -30.1875 30.5 C-29.8575 29.18 -29.5275 27.86 -29.1875 26.5 C-25.5575 26.5 -21.9275 26.5 -18.1875 26.5 C-19.5075 25.51 -20.8275 24.52 -22.1875 23.5 C-21.88221743 17.80987216 -19.450484 15.13995548 -15.4375 11.4375 C-14.9115625 10.93412109 -14.385625 10.43074219 -13.84375 9.91210938 C-12.80143021 8.91493958 -11.75397295 7.9231091 -10.70117188 6.93701172 C-9.24392166 5.55356418 -7.83170884 4.12314429 -6.421875 2.69140625 C-2.98259314 -0.68173557 -2.98259314 -0.68173557 0 0 Z " fill="#AF8C3F" transform="translate(132.1875,123.5)"/>
<path d="M0 0 C2.31 0 4.62 0 7 0 C8.98 5.61 10.96 11.22 13 17 C14.98 11.39 16.96 5.78 19 0 C20.98 0 22.96 0 25 0 C25.79211929 1.89564426 26.58367576 3.79152371 27.375 5.6875 C27.81585938 6.74324219 28.25671875 7.79898437 28.7109375 8.88671875 C29.82731585 11.58294161 30.91620601 14.29051501 32 17 C33.98 11.39 35.96 5.78 38 0 C40.31 0 42.62 0 45 0 C43.11738627 6.5726339 41.02132333 13.07221325 38.875 19.5625 C38.60929199 20.37251465 38.34358398 21.1825293 38.06982422 22.01708984 C36.1182629 27.8817371 36.1182629 27.8817371 35 29 C33.00041636 29.04080783 30.99954746 29.04254356 29 29 C28.20788071 27.10435574 27.41632424 25.20847629 26.625 23.3125 C26.18414062 22.25675781 25.74328125 21.20101563 25.2890625 20.11328125 C24.17268415 17.41705839 23.08379399 14.70948499 22 12 C20.02 17.61 18.04 23.22 16 29 C13.69 29 11.38 29 9 29 C6.27398623 22.80174522 4.15754712 16.48785043 2.25 10 C2.02739502 9.245979 1.80479004 8.49195801 1.57543945 7.71508789 C0 2.26563726 0 2.26563726 0 0 Z " fill="#585853" transform="translate(12,269)"/>
<path d="M0 0 C1.875 2.375 1.875 2.375 2.3125 6 C1.875 9.375 1.875 9.375 -0.125 11.375 C0.555625 12.055625 1.23625 12.73625 1.9375 13.4375 C3.875 16.375 3.875 16.375 3.875 20 C2.875 23.375 2.875 23.375 1 25.25 C-2.30575879 27.00010759 -4.8935382 27.4973588 -8.57421875 27.47265625 C-9.33822998 27.47015869 -10.10224121 27.46766113 -10.8894043 27.46508789 C-11.85402588 27.45598389 -12.81864746 27.44687988 -13.8125 27.4375 C-18.4221875 27.4065625 -18.4221875 27.4065625 -23.125 27.375 C-23.125 17.805 -23.125 8.235 -23.125 -1.625 C-6.35080645 -3.30241935 -6.35080645 -3.30241935 0 0 Z M-16.125 3.375 C-16.125 5.355 -16.125 7.335 -16.125 9.375 C-14.50009046 9.40198189 -12.87505367 9.42138757 -11.25 9.4375 C-9.89261719 9.45490234 -9.89261719 9.45490234 -8.5078125 9.47265625 C-6.1081415 9.53749257 -6.1081415 9.53749257 -4.125 8.375 C-4.125 7.055 -4.125 5.735 -4.125 4.375 C-6.64975462 3.11262269 -8.43700466 3.27643596 -11.25 3.3125 C-12.16007813 3.32152344 -13.07015625 3.33054687 -14.0078125 3.33984375 C-15.05582031 3.35724609 -15.05582031 3.35724609 -16.125 3.375 Z M-16.125 15.375 C-16.125 17.355 -16.125 19.335 -16.125 21.375 C-12.165 21.375 -8.205 21.375 -4.125 21.375 C-3.795 19.725 -3.465 18.075 -3.125 16.375 C-4.21052366 15.06237429 -4.21052366 15.06237429 -6.84765625 15.27734375 C-7.94980469 15.28894531 -9.05195313 15.30054688 -10.1875 15.3125 C-11.29222656 15.32152344 -12.39695313 15.33054687 -13.53515625 15.33984375 C-14.38980469 15.35144531 -15.24445313 15.36304688 -16.125 15.375 Z " fill="#676762" transform="translate(207.125,270.625)"/>
<path d="M0 0 C1.98 0 3.96 0 6 0 C6.33 2.97 6.66 5.94 7 9 C7.66 8.67 8.32 8.34 9 8 C12.4787573 7.52252351 14.95296712 7.32882508 17.98046875 9.26953125 C22.58631485 13.1726297 22.58631485 13.1726297 24 16 C24.2568576 20.01339995 24.00553831 23.59963168 21.6171875 26.92578125 C18.45997848 29.89185878 16.64020066 30.93597993 12.25 31.375 C10.64125 31.189375 10.64125 31.189375 9 31 C8.01 31 7.02 31 6 31 C4 31 2 31 0 31 C-0.9295755 23.86776167 -1.00062829 17.04620324 -0.5625 9.875 C-0.51029297 8.91851562 -0.45808594 7.96203125 -0.40429688 6.9765625 C-0.27636706 4.65056581 -0.14151455 2.32520281 0 0 Z M7 15 C5.99917465 18.42243314 5.99917465 18.42243314 6 22 C6.99 23.485 6.99 23.485 8 25 C11.5 25.41666667 11.5 25.41666667 15 25 C17.35639408 23.06110754 17.35639408 23.06110754 17.375 19.5625 C17.36814577 15.9821286 17.36814577 15.9821286 15.125 14.0625 C11.85450658 12.42725329 9.91103846 12.84019727 7 15 Z " fill="#64645D" transform="translate(83,267)"/>
<path d="M0 0 C1.98 0 3.96 0 6 0 C6.33 2.97 6.66 5.94 7 9 C7.66 8.67 8.32 8.34 9 8 C13.39889233 7.4924355 15.48119089 7.68675676 19.3125 10 C22.59155193 13.09444043 23.72872734 16.55112842 24 21 C23.07593855 25.06587037 21.10562016 27.28258236 18 30 C15.73845106 31.13077447 14.50117171 31.10387968 12 31.0625 C11.29875 31.05347656 10.5975 31.04445313 9.875 31.03515625 C9.25625 31.02355469 8.6375 31.01195312 8 31 C7.34 31 6.68 31 6 31 C4.02 31 2.04 31 0 31 C0 20.77 0 10.54 0 0 Z M7 15 C5.99917465 18.42243314 5.99917465 18.42243314 6 22 C6.99 23.485 6.99 23.485 8 25 C11.5 25.41666667 11.5 25.41666667 15 25 C17.35639408 23.06110754 17.35639408 23.06110754 17.375 19.5625 C17.36814577 15.9821286 17.36814577 15.9821286 15.125 14.0625 C11.85450658 12.42725329 9.91103846 12.84019727 7 15 Z " fill="#64645D" transform="translate(110,267)"/>
<path d="M0 0 C1.98 0 3.96 0 6 0 C6.33 2.97 6.66 5.94 7 9 C7.66 8.67 8.32 8.34 9 8 C14.86390959 7.32339505 14.86390959 7.32339505 17.7578125 9.046875 C20.61658901 11.39466247 22.74950982 13.21078446 23.2734375 16.953125 C23.46329043 21.24672199 23.4342668 24.09582964 20.625 27.5 C16.59915885 31.33413443 14.47882309 31.0961197 9 31 C8.01 31 7.02 31 6 31 C4.02 31 2.04 31 0 31 C0 20.77 0 10.54 0 0 Z M8.75 13.75 C6.85703431 14.89602495 6.85703431 14.89602495 6 17 C5.75 20 5.75 20 6 23 C7.94458314 25.3721969 7.94458314 25.3721969 11.5 25.3125 C12.655 25.209375 13.81 25.10625 15 25 C17.56687367 21.1496895 16.83288724 19.41430237 16 15 C12.49802301 13.17171786 12.49802301 13.17171786 8.75 13.75 Z " fill="#696962" transform="translate(226,267)"/>
<path d="M0 0 C1.98 0 3.96 0 6 0 C6.33 2.97 6.66 5.94 7 9 C7.66 8.67 8.32 8.34 9 8 C14.86390959 7.32339505 14.86390959 7.32339505 17.7578125 9.046875 C20.61658901 11.39466247 22.74950982 13.21078446 23.2734375 16.953125 C23.46329043 21.24672199 23.4342668 24.09582964 20.625 27.5 C17.4620904 30.51229486 16.20864244 31.13212828 12 31.0625 C11.29875 31.05347656 10.5975 31.04445313 9.875 31.03515625 C9.25625 31.02355469 8.6375 31.01195312 8 31 C7.34 31 6.68 31 6 31 C4.02 31 2.04 31 0 31 C0 20.77 0 10.54 0 0 Z M7.8125 14.5625 C5.60709412 16.98821602 5.60709412 16.98821602 6.1875 20.6875 C6.65419557 23.82696281 6.65419557 23.82696281 8 25 C11.45821402 25.25003964 11.45821402 25.25003964 15 25 C17.34886432 23.05925114 17.34886432 23.05925114 17.4375 19.5625 C17.4012653 15.87111235 17.4012653 15.87111235 14.625 14.0625 C11.02475483 12.5946273 11.02475483 12.5946273 7.8125 14.5625 Z " fill="#565550" transform="translate(253,267)"/>
<path d="M0 0 C3.0159732 1.76148435 5.41370439 3.82740878 7 7 C7 9.31 7 11.62 7 14 C2.05 14.33 -2.9 14.66 -8 15 C-6.77893908 16.45293137 -6.77893908 16.45293137 -3.125 16.0625 C-1.74995685 16.04474114 -0.37494706 16.02407495 1 16 C1.99 16 2.98 16 4 16 C4.66 17.32 5.32 18.64 6 20 C2.27311267 22.7951655 -0.5402979 23.47227635 -5.07421875 23.29296875 C-7.91239259 22.86119788 -9.74637283 21.73851239 -12 20 C-12.5775 19.608125 -13.155 19.21625 -13.75 18.8125 C-15.81426679 15.81931315 -16.11125711 12.5463204 -16 9 C-13.15334663 2.04151399 -7.55502193 -1.75595236 0 0 Z M-9 7 C-9 7.66 -9 8.32 -9 9 C-5.7 9 -2.4 9 1 9 C0.67 8.01 0.34 7.02 0 6 C-4.74076549 4.81301999 -4.74076549 4.81301999 -9 7 Z " fill="#5E5E59" transform="translate(305,275)"/>
<path d="M0 0 C3.30271299 2.01432793 6.36714857 4.22232745 7.6953125 7.953125 C8 10 8 10 8 14 C0.08 14.495 0.08 14.495 -8 15 C-6.94021067 16.28612676 -6.94021067 16.28612676 -4.49609375 16.09765625 C-3.48675781 16.08605469 -2.47742188 16.07445312 -1.4375 16.0625 C-0.42558594 16.05347656 0.58632812 16.04445313 1.62890625 16.03515625 C2.41136719 16.02355469 3.19382813 16.01195312 4 16 C4.66 17.32 5.32 18.64 6 20 C2.27311267 22.7951655 -0.5402979 23.47227635 -5.07421875 23.29296875 C-9.20769675 22.6641435 -12.40599811 20.16963714 -15 17 C-15.89301622 12.25333722 -15.6887291 8.18067845 -13.25 4 C-8.94686245 0.17498884 -5.85050645 -0.79328901 0 0 Z M-7.75 6.4375 C-9.10411584 7.79664875 -9.10411584 7.79664875 -9 9 C-5.37 9 -1.74 9 2 9 C0.25065102 6.91666921 0.25065102 6.91666921 -2 5 C-5.86230064 4.57684038 -5.86230064 4.57684038 -7.75 6.4375 Z " fill="#6C6C66" transform="translate(162,275)"/>
<path d="M0 0 C4.53664256 1.89905968 6.84514668 4.60741439 9 9 C9.52892004 12.84041946 8.95240749 15.70822892 6.640625 18.84375 C3.67681229 21.72598988 1.11879884 23.38377122 -3.0625 23.625 C-8.72824466 22.72567545 -11.63600618 20.8754915 -15 16.25 C-16.31469208 11.97725075 -15.92095953 9.02200902 -14 5 C-9.42395636 0.53835745 -6.35692772 -0.43097815 0 0 Z M-8 7 C-9.38125018 9.76250036 -9.19079306 11.94731099 -9 15 C-7.05667668 17.37994368 -7.05667668 17.37994368 -3.5 17.25 C0.05667668 17.37994368 0.05667668 17.37994368 2 15 C2.50007794 11.54213985 2.50007794 11.54213985 2 8 C0.2515605 5.97891823 0.2515605 5.97891823 -2 5 C-4.50320403 5 -5.85118612 5.75230162 -8 7 Z " fill="#666661" transform="translate(71,275)"/>
<path d="M0 0 C1.32 1.32 2.64 2.64 4 4 C-2.87704455 10.45898713 -9.46425642 13.78365678 -19 14 C-20.90254192 13.77803678 -22.80560956 13.55403041 -24.69921875 13.265625 C-32.27292 12.39124183 -39.81149721 12.32520827 -47 15 C-47.66 13.68 -48.32 12.36 -49 11 C-44.14209382 6.86178362 -39.65556391 6.87553849 -33.44921875 7.04296875 C-32.19302734 7.06423828 -30.93683594 7.08550781 -29.64257812 7.10742188 C-27.01730895 7.16057547 -24.39225148 7.22557656 -21.76757812 7.30273438 C-13.64036807 7.41497717 -7.43758567 7.25959913 -1.2956543 1.36401367 C-0.86808838 0.91388916 -0.44052246 0.46376465 0 0 Z " fill="#436150" transform="translate(134,166)"/>
<path d="M0 0 C2.31 0 4.62 0 7 0 C5.11738627 6.5726339 3.02132333 13.07221325 0.875 19.5625 C0.60929199 20.37251465 0.34358398 21.1825293 0.06982422 22.01708984 C-1.8817371 27.8817371 -1.8817371 27.8817371 -3 29 C-4.99958364 29.04080783 -7.00045254 29.04254356 -9 29 C-9.86580287 27.06767179 -10.71729941 25.12892806 -11.5625 23.1875 C-12.03816406 22.10855469 -12.51382813 21.02960938 -13.00390625 19.91796875 C-14 17 -14 17 -13 14 C-12.01 14 -11.02 14 -10 14 C-9.34 13.34 -8.68 12.68 -8 12 C-7.34 13.65 -6.68 15.3 -6 17 C-4.02 11.39 -2.04 5.78 0 0 Z " fill="#76766E" transform="translate(50,269)"/>
<path d="M0 0 C3 1 3 1 4.07495117 2.62646484 C4.39439697 3.31434082 4.71384277 4.0022168 5.04296875 4.7109375 C5.39423828 5.46117188 5.74550781 6.21140625 6.10742188 6.984375 C6.64206055 8.16773437 6.64206055 8.16773437 7.1875 9.375 C7.55552734 10.15617187 7.92355469 10.93734375 8.30273438 11.7421875 C11 17.58709705 11 17.58709705 11 21 C6.73383684 22.13764351 3.43513689 23 -1 23 C-2.03516348 20.75564555 -3.05314977 18.50593133 -4.0625 16.25 C-4.50432617 15.29867187 -4.50432617 15.29867187 -4.95507812 14.328125 C-6.1108834 11.71736484 -7.03648106 9.6076703 -6.86328125 6.72265625 C-5.25015633 3.50370562 -2.93584123 2.05508886 0 0 Z " fill="#D78C5F" transform="translate(223,103)"/>
<path d="M0 0 C1.98 0 3.96 0 6 0 C6 10.23 6 20.46 6 31 C4.02 31 2.04 31 0 31 C-0.86342835 25.06393008 -1.10961678 19.23855922 -1.125 13.25 C-1.12951172 12.51724854 -1.13402344 11.78449707 -1.13867188 11.02954102 C-1.12825815 7.22809863 -0.91642496 3.69479269 0 0 Z " fill="#5F5E59" transform="translate(280,267)"/>
<path d="M0 0 C1.98 0 3.96 0 6 0 C6 10.23 6 20.46 6 31 C4.02 31 2.04 31 0 31 C0 20.77 0 10.54 0 0 Z " fill="#64645E" transform="translate(137,267)"/>
<path d="M0 0 C4.1146875 -0.0928125 4.1146875 -0.0928125 8.3125 -0.1875 C9.60281128 -0.22846802 9.60281128 -0.22846802 10.91918945 -0.27026367 C11.60198975 -0.27775635 12.28479004 -0.28524902 12.98828125 -0.29296875 C14.03302612 -0.31653442 14.03302612 -0.31653442 15.09887695 -0.34057617 C17.54489783 0.09761557 18.42702086 1.13437358 20 3 C16.45049966 4.16306443 13.44176052 3.92365049 9.75 3.5625 C8.67234375 3.46066406 7.5946875 3.35882813 6.484375 3.25390625 C5.66453125 3.17011719 4.8446875 3.08632813 4 3 C4 4.65 4 6.3 4 8 C3.01 8.33 2.02 8.66 1 9 C1.33 12.3 1.66 15.6 2 19 C2.99 18.01 3.98 17.02 5 16 C5 18.31 5 20.62 5 23 C9.29 23 13.58 23 18 23 C17.67 23.66 17.34 24.32 17 25 C17.66 25.66 18.32 26.32 19 27 C12.73 27 6.46 27 0 27 C0 18.09 0 9.18 0 0 Z " fill="#444541" transform="translate(185,270)"/>
<path d="M0 0 C4.18693072 1.39564357 4.92184482 3.66993538 6.921875 7.453125 C9.19478431 12.82246149 9.63368082 18.37287719 8 24 C7.34 22.68 6.68 21.36 6 20 C5.34 20 4.68 20 4 20 C3.67 21.32 3.34 22.64 3 24 C2.34 23.67 1.68 23.34 1 23 C0.87625 22.278125 0.7525 21.55625 0.625 20.8125 C0.14463594 17.7937065 0.14463594 17.7937065 -2.125 15 C-4 12 -4 12 -3.9375 9.5625 C-2.74708454 6.30869775 -1.42471573 3.15915226 0 0 Z " fill="#3A5948" transform="translate(203,136)"/>
<path d="M0 0 C4.9145115 0.57335967 6.29902506 1.98652506 9.75 5.4375 C11.49221711 8.92193422 11.33675154 12.63637045 10.75 16.4375 C9.04748281 19.51219523 6.93773492 21.84363254 3.75 23.4375 C0.25 23.625 0.25 23.625 -3.25 23.4375 C-3.91 22.7775 -4.57 22.1175 -5.25 21.4375 C-4.625 19.5 -4.625 19.5 -3.25 17.4375 C-0.125 16.6875 -0.125 16.6875 2.75 16.4375 C3.5854783 11.79595387 3.84700679 8.04492852 2.75 3.4375 C2.42 3.1075 2.09 2.7775 1.75 2.4375 C1.75 2.7675 1.75 3.0975 1.75 3.4375 C-0.56 3.1075 -2.87 2.7775 -5.25 2.4375 C-3.25 0.4375 -3.25 0.4375 0 0 Z " fill="#51514D" transform="translate(238.25,274.5625)"/>
<path d="M0 0 C1.32 0 2.64 0 4 0 C4.08302368 0.92280762 4.08302368 0.92280762 4.16772461 1.86425781 C4.42107482 4.65980996 4.67923694 7.45489762 4.9375 10.25 C5.02451172 11.21808594 5.11152344 12.18617188 5.20117188 13.18359375 C5.28818359 14.11816406 5.37519531 15.05273438 5.46484375 16.015625 C5.543396 16.87446289 5.62194824 17.73330078 5.70288086 18.61816406 C5.97709903 20.81641589 6.41066966 22.86718545 7 25 C9.64 25 12.28 25 15 25 C14.67 26.32 14.34 27.64 14 29 C10.05272412 29.17942163 7.4019487 29.09350689 4 27 C4 27.66 4 28.32 4 29 C2.68 29 1.36 29 0 29 C0 19.43 0 9.86 0 0 Z " fill="#424240" transform="translate(111,268)"/>
<path d="M0 0 C2.31 0 4.62 0 7 0 C7 7.59 7 15.18 7 23 C4.69 23 2.38 23 0 23 C0 15.41 0 7.82 0 0 Z " fill="#717069" transform="translate(214,275)"/>
<path d="M0 0 C3.58994826 1.33340936 6.95520055 2.65115471 10 5 C10.625 7.3125 10.625 7.3125 10 10 C8.48819969 12.21035632 6.83503604 14.02733626 5 16 C1.84669446 15.39305845 -0.18888867 14.3583335 -2.75 12.4375 C-3.36359375 11.98246094 -3.9771875 11.52742187 -4.609375 11.05859375 C-5.06828125 10.70925781 -5.5271875 10.35992187 -6 10 C-4.6302836 6.00499382 -2.74277578 3.19990508 0 0 Z " fill="#D88C5F" transform="translate(173,183)"/>
<path d="M0 0 C4.65968438 -0.42360767 7.9075378 0.80219623 12 3 C14.87434293 6.14381258 15 7.70241439 15 12 C14.44766217 15.03785804 13.78521863 16.32217206 12 19 C7.93437948 21.71041368 4.74570218 21.46526492 0 21 C0.33 20.01 0.66 19.02 1 18 C2.65 17.67 4.3 17.34 6 17 C7.180933 13.457201 7.27028374 10.71640139 7 7 C6.01 6.34 5.02 5.68 4 5 C4 4.34 4 3.68 4 3 C2.35 3.33 0.7 3.66 -1 4 C-0.67 2.68 -0.34 1.36 0 0 Z " fill="#5E5E59" transform="translate(65,276)"/>
<path d="M0 0 C1.32 0 2.64 0 4 0 C4 3.3 4 6.6 4 10 C5.32 9.67 6.64 9.34 8 9 C7.67 9.99 7.34 10.98 7 12 C6.34 12 5.68 12 5 12 C5.14168137 13.43791516 5.28851043 14.8753237 5.4375 16.3125 C5.51871094 17.11300781 5.59992188 17.91351563 5.68359375 18.73828125 C5.95265693 21.16087179 5.95265693 21.16087179 7 24 C6.67 24.99 6.34 25.98 6 27 C5.34 27 4.68 27 4 27 C4 27.66 4 28.32 4 29 C2.68 29 1.36 29 0 29 C0 19.43 0 9.86 0 0 Z " fill="#3D3D3B" transform="translate(254,268)"/>
<path d="M0 0 C3.0097291 1.77847628 5.41086334 3.82172667 7 7 C7 9.31 7 11.62 7 14 C-1.415 14.495 -1.415 14.495 -10 15 C-10 14.34 -10 13.68 -10 13 C-4.72 13 0.56 13 6 13 C6 11.35 6 9.7 6 8 C5.34 8 4.68 8 4 8 C3.34 7.34 2.68 6.68 2 6 C1.01 6.495 1.01 6.495 0 7 C-0.969375 6.79375 -1.93875 6.5875 -2.9375 6.375 C-4.4534375 6.189375 -4.4534375 6.189375 -6 6 C-6.99 6.99 -7.98 7.98 -9 9 C-3.555 8.505 -3.555 8.505 2 8 C2 8.66 2 9.32 2 10 C-1.96 10 -5.92 10 -10 10 C-10.33 9.34 -10.66 8.68 -11 8 C-11.66 8 -12.32 8 -13 8 C-13.66 9.98 -14.32 11.96 -15 14 C-15.33 14 -15.66 14 -16 14 C-15.88322892 7.2272774 -15.88322892 7.2272774 -13.65625 4.1328125 C-9.22246319 -0.07928497 -6.01572184 -1.05036413 0 0 Z " fill="#6C6C65" transform="translate(305,275)"/>
<path d="M0 0 C1.98 0 3.96 0 6 0 C8.81849506 5.54891215 10.5326514 9.741346 10 16 C9.01 16 8.02 16 7 16 C6.67 15.34 6.34 14.68 6 14 C5.34 14 4.68 14 4 14 C3.67 13.34 3.34 12.68 3 12 C2.34 12 1.68 12 1 12 C0.67 12.66 0.34 13.32 0 14 C-2 12 -2 12 -2.25 8.6875 C-2.01863452 5.27485916 -1.4765288 3.04534065 0 0 Z " fill="#51514E" transform="translate(31,269)"/>
<path d="M0 0 C1.98 0 3.96 0 6 0 C6.33 3.63 6.66 7.26 7 11 C6.34 11 5.68 11 5 11 C5 7.7 5 4.4 5 1 C3.68 1 2.36 1 1 1 C1 10.57 1 20.14 1 30 C2.32 30 3.64 30 5 30 C5.66 28.35 6.32 26.7 7 25 C10.96 24.505 10.96 24.505 15 24 C15.99 20.535 15.99 20.535 17 17 C18.62433191 19.50076998 19.07333427 20.58982529 18.5390625 23.578125 C18.23742187 24.45984375 17.93578125 25.3415625 17.625 26.25 C17.32851563 27.14203125 17.03203125 28.0340625 16.7265625 28.953125 C16.36691406 29.96632813 16.36691406 29.96632813 16 31 C10.66666667 31 5.33333333 31 0 31 C0 20.77 0 10.54 0 0 Z " fill="#6B6B64" transform="translate(253,267)"/>
<path d="M0 0 C1.98 0 3.96 0 6 0 C5.96519531 0.75925781 5.93039063 1.51851563 5.89453125 2.30078125 C5.85392578 3.79158203 5.85392578 3.79158203 5.8125 5.3125 C5.77769531 6.29863281 5.74289063 7.28476562 5.70703125 8.30078125 C5.75721892 11.04574389 5.75721892 11.04574389 7.51171875 12.85546875 C8.24841797 13.42201172 8.24841797 13.42201172 9 14 C8.01 15.485 8.01 15.485 7 17 C6.61500109 18.65549531 6.27206865 20.3222433 6 22 C5.34 21.01 4.68 20.02 4 19 C3.34 19.33 2.68 19.66 2 20 C2 14.06 2 8.12 2 2 C2.99 1.67 3.98 1.34 5 1 C3.68 1 2.36 1 1 1 C1 10.57 1 20.14 1 30 C2.32 30 3.64 30 5 30 C5 29.34 5 28.68 5 28 C5.66 28.33 6.32 28.66 7 29 C6.67 29.66 6.34 30.32 6 31 C4.02 31 2.04 31 0 31 C-0.9295755 23.86776167 -1.00062829 17.04620324 -0.5625 9.875 C-0.51029297 8.91851562 -0.45808594 7.96203125 -0.40429688 6.9765625 C-0.27636706 4.65056581 -0.14151455 2.32520281 0 0 Z " fill="#73736E" transform="translate(83,267)"/>
<path d="M0 0 C2.31 0 4.62 0 7 0 C7.86343731 2.28855702 8.7159811 4.5801928 9.5625 6.875 C9.80935547 7.52597656 10.05621094 8.17695313 10.31054688 8.84765625 C10.93173115 10.54497665 11.47152252 12.27156776 12 14 C11.67 14.66 11.34 15.32 11 16 C10.34 16.144375 9.68 16.28875 9 16.4375 C8.34 16.623125 7.68 16.80875 7 17 C6.67 17.99 6.34 18.98 6 20 C3.70438191 13.40620337 1.77910928 6.75052102 0 0 Z " fill="#63625D" transform="translate(12,269)"/>
<path d="M0 0 C1.32 0 2.64 0 4 0 C3.67 0.99 3.34 1.98 3 3 C3 2.34 3 1.68 3 1 C2.34 1 1.68 1 1 1 C1.33 6.61 1.66 12.22 2 18 C2.66 17.34 3.32 16.68 4 16 C4 17.65 4 19.3 4 21 C4.66 21 5.32 21 6 21 C6.66 21.99 7.32 22.98 8 24 C11.06556598 24.73343428 11.06556598 24.73343428 14 25 C14 26.32 14 27.64 14 29 C11.36 29 8.72 29 6 29 C6 28.34 6 27.68 6 27 C5.34 27 4.68 27 4 27 C4 27.66 4 28.32 4 29 C2.68 29 1.36 29 0 29 C0 19.43 0 9.86 0 0 Z " fill="#3D3D3B" transform="translate(84,268)"/>
<path d="M0 0 C6.52999954 9.79499932 4.17756834 29.18343017 2.2109375 40.30078125 C1.40180566 43.97861713 0.52400083 47.54423893 -1 51 C-2.485 51.495 -2.485 51.495 -4 52 C-3.71125 50.84371094 -3.4225 49.68742187 -3.125 48.49609375 C0.58981394 32.27771935 0.41773759 16.53437513 0 0 Z " fill="#2F4F3D" transform="translate(258,112)"/>
<path d="M0 0 C0.66 1.32 1.32 2.64 2 4 C2.66 4 3.32 4 4 4 C4 5.65 4 7.3 4 9 C-1.28 9 -6.56 9 -12 9 C-11.67 10.32 -11.34 11.64 -11 13 C-12.98 12.34 -14.96 11.68 -17 11 C-16.67 8.36 -16.34 5.72 -16 3 C-14.68 3 -13.36 3 -12 3 C-12 3.99 -12 4.98 -12 6 C-8.04 6 -4.08 6 0 6 C-0.33 4.68 -0.66 3.36 -1 2 C-0.67 1.34 -0.34 0.68 0 0 Z " fill="#3E3E3C" transform="translate(307,279)"/>
<path d="M0 0 C0.33 0.99 0.66 1.98 1 3 C1.66 3 2.32 3 3 3 C3 4.32 3 5.64 3 7 C-2.61 7 -8.22 7 -14 7 C-14.33 7.99 -14.66 8.98 -15 10 C-16.32 9.67 -17.64 9.34 -19 9 C-19 6.69 -19 4.38 -19 2 C-17.68 1.67 -16.36 1.34 -15 1 C-15 1.66 -15 2.32 -15 3 C-14.16855469 2.98839844 -13.33710938 2.97679687 -12.48046875 2.96484375 C-11.39378906 2.95582031 -10.30710938 2.94679688 -9.1875 2.9375 C-8.10855469 2.92589844 -7.02960938 2.91429687 -5.91796875 2.90234375 C-3 3 -3 3 0 4 C0 2.68 0 1.36 0 0 Z " fill="#61615C" transform="translate(167,282)"/>
<path d="M0 0 C0.33 0.99 0.66 1.98 1 3 C-1.41250331 5.44165065 -3.83071839 7.87756685 -6.25 10.3125 C-6.93191406 11.00279297 -7.61382812 11.69308594 -8.31640625 12.40429688 C-8.98027344 13.07138672 -9.64414063 13.73847656 -10.328125 14.42578125 C-10.9355957 15.03848877 -11.54306641 15.65119629 -12.16894531 16.2824707 C-14 18 -14 18 -16.12011719 19.55541992 C-18.47680964 21.36640035 -19.59846148 23.40715374 -21 26 C-22.32 25.67 -23.64 25.34 -25 25 C-24.30132812 24.31292969 -23.60265625 23.62585938 -22.8828125 22.91796875 C-21.97273437 22.01691406 -21.06265625 21.11585937 -20.125 20.1875 C-19.22007812 19.29417969 -18.31515625 18.40085937 -17.3828125 17.48046875 C-14.90168486 15.04361667 -14.90168486 15.04361667 -13 12 C-12.34 12 -11.68 12 -11 12 C-10.7421875 11.42765625 -10.484375 10.8553125 -10.21875 10.265625 C-8.88634058 7.78871005 -7.34943882 5.8658834 -5.5 3.75 C-4.58734375 2.69039062 -4.58734375 2.69039062 -3.65625 1.609375 C-2 0 -2 0 0 0 Z M1 1 C5 2 5 2 5 2 Z " fill="#4B6953" transform="translate(188,39)"/>
<path d="M0 0 C2.53418918 3.80128377 2.68690436 5.49696032 2 10 C0.0455778 12.64829991 -2.10537612 14.44092652 -5 16 C-8.9375 16.375 -8.9375 16.375 -12 16 C-12 15.67 -12 15.34 -12 15 C-10.02 15 -8.04 15 -6 15 C-6 13.68 -6 12.36 -6 11 C-7.98 11 -9.96 11 -12 11 C-12 10.67 -12 10.34 -12 10 C-10.88625 9.79375 -9.7725 9.5875 -8.625 9.375 C-4.73400805 8.38371699 -4.73400805 8.38371699 -3.5625 4.875 C-3.376875 3.92625 -3.19125 2.9775 -3 2 C-2.01 2.33 -1.02 2.66 0 3 C0 2.01 0 1.02 0 0 Z " fill="#3D3D3B" transform="translate(104,282)"/>
<path d="M0 0 C2.69082872 0.17635452 5.32851446 0.61835921 8 1 C8 5 8 5 5.625 7.4375 C4.75875 8.283125 3.8925 9.12875 3 10 C1.680982 12.66533035 1.680982 12.66533035 1 15 C-0.5625 13.9375 -0.5625 13.9375 -2 12 C-1.87059529 8.3766682 -1.75012072 5.93014969 0.5625 3.0625 C1.2740625 2.5365625 1.2740625 2.5365625 2 2 C1.01 1.67 0.02 1.34 -1 1 C-0.67 0.67 -0.34 0.34 0 0 Z " fill="#CDB063" transform="translate(109,131)"/>
<path d="M0 0 C0.33 0.99 0.66 1.98 1 3 C1.66 3 2.32 3 3 3 C4.09857724 9.1676029 4.11539104 15.18415123 4.0625 21.4375 C4.05798828 22.45521484 4.05347656 23.47292969 4.04882812 24.52148438 C4.03712437 27.01438509 4.02072848 29.50716074 4 32 C3.34 32 2.68 32 2 32 C2 33.65 2 35.3 2 37 C1.67 37 1.34 37 1 37 C1.00523682 36.44763672 1.01047363 35.89527344 1.01586914 35.32617188 C1.11262243 23.50022539 0.93407947 11.79275328 0 0 Z " fill="#44614F" transform="translate(265,113)"/>
<path d="M0 0 C1.16144531 0.00902344 2.32289062 0.01804688 3.51953125 0.02734375 C4.39996094 0.03894531 5.28039062 0.05054688 6.1875 0.0625 C6.1875 0.3925 6.1875 0.7225 6.1875 1.0625 C1.8975 1.7225 -2.3925 2.3825 -6.8125 3.0625 C-2.8525 3.3925 1.1075 3.7225 5.1875 4.0625 C5.1875 4.3925 5.1875 4.7225 5.1875 5.0625 C4.40246094 5.11148438 3.61742188 5.16046875 2.80859375 5.2109375 C-3.00272303 5.6245036 -8.291443 6.18032148 -13.8125 8.0625 C-14.4725 6.7425 -15.1325 5.4225 -15.8125 4.0625 C-10.90720268 -0.1160866 -6.27264464 -0.06336005 0 0 Z " fill="#6B806E" transform="translate(100.8125,172.9375)"/>
<path d="M0 0 C1.32 1.32 2.64 2.64 4 4 C2.92130607 4.96355244 1.83681257 5.92061417 0.75 6.875 C0.14671875 7.40867188 -0.4565625 7.94234375 -1.078125 8.4921875 C-3.01478471 10.01159939 -4.69793955 11.12521703 -7 12 C-7.99 11.67 -8.98 11.34 -10 11 C-9.34 11 -8.68 11 -8 11 C-8 10.01 -8 9.02 -8 8 C-8.99 7.67 -9.98 7.34 -11 7 C-10.18595703 6.61908203 -10.18595703 6.61908203 -9.35546875 6.23046875 C-8.64003906 5.88628906 -7.92460938 5.54210937 -7.1875 5.1875 C-6.47980469 4.85105469 -5.77210938 4.51460937 -5.04296875 4.16796875 C-2.98870965 2.99354529 -1.58383722 1.74371984 0 0 Z " fill="#4D6756" transform="translate(134,166)"/>
<path d="M0 0 C1.0625 1.8125 1.0625 1.8125 2 4 C1.67 4.99 1.34 5.98 1 7 C0.93334624 8.39439664 0.91461801 9.79169875 0.9375 11.1875 C0.958125 12.445625 0.97875 13.70375 1 15 C2.32 15 3.64 15 5 15 C5.33 14.01 5.66 13.02 6 12 C6 13.65 6 15.3 6 17 C4.02 17 2.04 17 0 17 C-0.86580287 15.06767179 -1.71729941 13.12892806 -2.5625 11.1875 C-3.03816406 10.10855469 -3.51382813 9.02960938 -4.00390625 7.91796875 C-5 5 -5 5 -4 2 C-3.01 2 -2.02 2 -1 2 C-0.67 1.34 -0.34 0.68 0 0 Z " fill="#6C6C66" transform="translate(41,281)"/>
<path d="M0 0 C1.32 0.33 2.64 0.66 4 1 C4 1.66 4 2.32 4 3 C3.34 3 2.68 3 2 3 C2 6.3 2 9.6 2 13 C-0.97 12.505 -0.97 12.505 -4 12 C-5.1577506 8.52674819 -5.06866652 5.63932552 -5 2 C-3.33333333 2 -1.66666667 2 0 2 C0 1.34 0 0.68 0 0 Z " fill="#4F4F4C" transform="translate(46,284)"/>
<path d="M0 0 C2.77141717 -0.08089542 5.54047819 -0.14044062 8.3125 -0.1875 C9.09818359 -0.21263672 9.88386719 -0.23777344 10.69335938 -0.26367188 C11.45068359 -0.27333984 12.20800781 -0.28300781 12.98828125 -0.29296875 C14.03302612 -0.31653442 14.03302612 -0.31653442 15.09887695 -0.34057617 C17.54489783 0.09761557 18.42702086 1.13437358 20 3 C16.45049966 4.16306443 13.44176052 3.92365049 9.75 3.5625 C8.67234375 3.46066406 7.5946875 3.35882813 6.484375 3.25390625 C5.66453125 3.17011719 4.8446875 3.08632813 4 3 C4 4.65 4 6.3 4 8 C3.01 8.495 3.01 8.495 2 9 C2 6.36 2 3.72 2 1 C1.34 0.67 0.68 0.34 0 0 Z " fill="#3D3D3D" transform="translate(185,270)"/>
<path d="M0 0 C1 2 1 2 0.36328125 4.0234375 C-1.5835528 8.38029287 -3.2276548 11.90128787 -7 15 C-7.99 14.34 -8.98 13.68 -10 13 C-10 10 -10 10 -7.8125 7.51953125 C-6.884375 6.62621094 -5.95625 5.73289062 -5 4.8125 C-4.071875 3.91144531 -3.14375 3.01039062 -2.1875 2.08203125 C-1.1046875 1.05142578 -1.1046875 1.05142578 0 0 Z " fill="#D9A57F" transform="translate(234,81)"/>
<path d="M0 0 C1.27020016 3.59043246 0.70325938 5.89920722 -0.375 9.5 C-0.65085937 10.4384375 -0.92671875 11.376875 -1.2109375 12.34375 C-1.60152344 13.65859375 -1.60152344 13.65859375 -2 15 C-2.17015625 15.73734375 -2.3403125 16.4746875 -2.515625 17.234375 C-3.15164429 19.55276788 -4.1088856 20.54529662 -6 22 C-6.99 22 -7.98 22 -9 22 C-8.38498691 17.86954169 -6.98863121 14.69214393 -5.0625 11 C-3.18433108 7.38210214 -1.45026887 3.81133463 0 0 Z " fill="#D2B975" transform="translate(88,150)"/>
<path d="M0 0 C0.33 0.99 0.66 1.98 1 3 C2.32 3 3.64 3 5 3 C5 2.34 5 1.68 5 1 C6.98 0.67 8.96 0.34 11 0 C-0.53846154 10 -0.53846154 10 -7 10 C-6.42424336 6.64749299 -5.40693737 5.06181371 -2.9375 2.75 C-2.38964844 2.22921875 -1.84179688 1.7084375 -1.27734375 1.171875 C-0.64505859 0.59179688 -0.64505859 0.59179688 0 0 Z " fill="#B9A265" transform="translate(89,165)"/>
<path d="M0 0 C2 4 2 4 1.375 7.5 C-0.2531986 11.64450552 -2.00528841 14.0026442 -6 16 C-8.6723621 16.13415472 -11.32250488 16.04318541 -14 16 C-14.33 15.34 -14.66 14.68 -15 14 C-12.36 14.33 -9.72 14.66 -7 15 C-6.67 13.68 -6.34 12.36 -6 11 C-8.64 11 -11.28 11 -14 11 C-14 10.67 -14 10.34 -14 10 C-12.9275 9.855625 -11.855 9.71125 -10.75 9.5625 C-7.22404292 9.11141489 -7.22404292 9.11141489 -4.75 8.375 C-3 8 -3 8 0 9 C0 6.03 0 3.06 0 0 Z " fill="#797A72" transform="translate(132,282)"/>
<path d="M0 0 C1.32 0 2.64 0 4 0 C4 9.57 4 19.14 4 29 C2.68 29 1.36 29 0 29 C0.33 27.68 0.66 26.36 1 25 C1.33 25.33 1.66 25.66 2 26 C2 25.01 2 24.02 2 23 C1.34 23.33 0.68 23.66 0 24 C0 20.04 0 16.08 0 12 C0.33 12 0.66 12 1 12 C1 14.31 1 16.62 1 19 C1.66 19 2.32 19 3 19 C3 13.06 3 7.12 3 1 C2.01 0.67 1.02 0.34 0 0 Z " fill="#363634" transform="translate(138,268)"/>
<path d="M0 0 C1.65 0.33 3.3 0.66 5 1 C5.62674095 10.12256267 5.62674095 10.12256267 3.125 13.625 C1 15 1 15 -1 15 C-0.06993007 10.21678322 -0.06993007 10.21678322 0.625 8.0625 C1.14135175 5.22256539 0.57352767 2.80391303 0 0 Z " fill="#484844" transform="translate(270,282)"/>
<path d="M0 0 C7.76785714 -0.66964286 7.76785714 -0.66964286 11.4375 2.375 C15.78265125 6.82613055 15 6.85954212 15 14 C6.585 14.495 6.585 14.495 -2 15 C-2 14.34 -2 13.68 -2 13 C3.28 13 8.56 13 14 13 C14 11.35 14 9.7 14 8 C13.34 8 12.68 8 12 8 C11.34 7.34 10.68 6.68 10 6 C9.01 6.495 9.01 6.495 8 7 C7.34 6.34 6.68 5.68 6 5 C6.99 5 7.98 5 9 5 C9 4.34 9 3.68 9 3 C8.34 3 7.68 3 7 3 C7 2.34 7 1.68 7 1 C4.69 1 2.38 1 0 1 C0 0.67 0 0.34 0 0 Z " fill="#8F8E85" transform="translate(297,275)"/>
<path d="M0 0 C1.32 0 2.64 0 4 0 C4 3.3 4 6.6 4 10 C3.34 9.67 2.68 9.34 2 9 C1.67 15.6 1.34 22.2 1 29 C0.67 29 0.34 29 0 29 C0 19.43 0 9.86 0 0 Z " fill="#2D2E2D" transform="translate(227,268)"/>
<path d="M0 0 C2.12493141 -0.02693575 4.24995912 -0.04636628 6.375 -0.0625 C7.55835938 -0.07410156 8.74171875 -0.08570313 9.9609375 -0.09765625 C13 0 13 0 15 1 C15.125 6.75 15.125 6.75 14 9 C15.32 9.66 16.64 10.32 18 11 C16.1875 11.6875 16.1875 11.6875 14 12 C13.5771875 11.525625 13.154375 11.05125 12.71875 10.5625 C10.33008512 8.39098647 8.49235335 8.4995502 5.3125 8.3125 C4.31863281 8.24675781 3.32476562 8.18101562 2.30078125 8.11328125 C1.16189453 8.05720703 1.16189453 8.05720703 0 8 C0 5.36 0 2.72 0 0 Z M1 1 C1 2.98 1 4.96 1 7 C4.96 7 8.92 7 13 7 C13.33 5.35 13.66 3.7 14 2 C12.91447634 0.68737429 12.91447634 0.68737429 10.27734375 0.90234375 C9.17519531 0.91394531 8.07304687 0.92554688 6.9375 0.9375 C5.83277344 0.94652344 4.72804687 0.95554687 3.58984375 0.96484375 C2.73519531 0.97644531 1.88054687 0.98804688 1 1 Z " fill="#919189" transform="translate(190,285)"/>
<path d="M0 0 C0 1.65 0 3.3 0 5 C-2.01822917 5.45572917 -4.03645833 5.91145833 -6.0546875 6.3671875 C-8.20719964 6.90474428 -8.20719964 6.90474428 -10 9 C-10.75 6.75 -10.75 6.75 -11 4 C-8.05685327 -0.53735121 -5.12254057 -0.39404158 0 0 Z " fill="#5D5D59" transform="translate(126,275)"/>
<path d="M0 0 C1.32 0.33 2.64 0.66 4 1 C4 2.32 4 3.64 4 5 C1.59454362 6.20272819 0.05003047 6.10071472 -2.625 6.0625 C-3.85089844 6.04896484 -3.85089844 6.04896484 -5.1015625 6.03515625 C-6.04128906 6.01775391 -6.04128906 6.01775391 -7 6 C-7.33 4.68 -7.66 3.36 -8 2 C-5.36 2 -2.72 2 0 2 C0 1.34 0 0.68 0 0 Z " fill="#4B4C47" transform="translate(163,291)"/>
<path d="M0 0 C1.10844919 3.32534757 0.84454356 5.62182575 0 9 C-3.375 9.125 -3.375 9.125 -7 9 C-7.66 8.34 -8.32 7.68 -9 7 C-8.375 5.0625 -8.375 5.0625 -7 3 C-3.9375 2.375 -3.9375 2.375 -1 2 C-0.67 1.34 -0.34 0.68 0 0 Z " fill="#666661" transform="translate(242,289)"/>
<path d="M0 0 C0.33 0.99 0.66 1.98 1 3 C-2.76508495 5.51005664 -5.39461609 5.0258295 -9.6875 4.625 C-10.38939453 4.56828125 -11.09128906 4.5115625 -11.81445312 4.453125 C-13.54380285 4.31195359 -15.27204088 4.15728041 -17 4 C-16.67 3.34 -16.34 2.68 -16 2 C-12.7 2 -9.4 2 -6 2 C-6.99 1.01 -7.98 0.02 -9 -1 C-5.28390294 -2.03224918 -3.21421745 -2.29586961 0 0 Z " fill="#74726E" transform="translate(169,281)"/>
<path d="M0 0 C2.5 0.125 2.5 0.125 3.5 1.125 C3.625 3.625 3.625 3.625 3.5 6.125 C2.5 7.125 2.5 7.125 0 7.25 C-2.5 7.125 -2.5 7.125 -3.5 6.125 C-3.625 3.625 -3.625 3.625 -3.5 1.125 C-2.5 0.125 -2.5 0.125 0 0 Z " fill="#65665F" transform="translate(217.5,265.875)"/>
<path d="M0 0 C-3.49046605 1.16348868 -6.32277017 1.16834776 -10 1.1875 C-11.2375 1.20167969 -12.475 1.21585938 -13.75 1.23046875 C-17 1 -17 1 -20 -1 C-13.41315598 -2.38670401 -6.01175041 -3.50454574 0 0 Z " fill="#0D3221" transform="translate(111,176)"/>
<path d="M0 0 C2.79233071 2.55277419 3.48967606 4.22360282 4 8 C2.68 7.01 1.36 6.02 0 5 C-0.94875 5.825 -1.8975 6.65 -2.875 7.5 C-5.75 10 -5.75 10 -8 10 C-6.34908222 5.70761377 -3.26245434 3.1206085 0 0 Z " fill="#D89F78" transform="translate(210,71)"/>
<path d="M0 0 C1.32 0.99 2.64 1.98 4 3 C3 6 3 6 1.4375 7.1875 C-2.11122383 8.37040794 -5.26701621 8.12443279 -9 8 C-9 7.67 -9 7.34 -9 7 C-6.69 7 -4.38 7 -2 7 C-1.67 5.68 -1.34 4.36 -1 3 C-3.64 3 -6.28 3 -9 3 C-9 2.67 -9 2.34 -9 2 C-6.94921875 1.77213542 -4.8984375 1.54427083 -2.84765625 1.31640625 C-0.98859771 1.18113386 -0.98859771 1.18113386 0 0 Z " fill="#79796F" transform="translate(307,290)"/>
<path d="M0 0 C3.65316671 1.24976756 4.78065836 1.67098753 7 5 C6.67 5.66 6.34 6.32 6 7 C4.68 6.67 3.36 6.34 2 6 C2 6.66 2 7.32 2 8 C1.01 8 0.02 8 -1 8 C-1.125 2.25 -1.125 2.25 0 0 Z " fill="#444442" transform="translate(229,289)"/>
<path d="M0 0 C0.33 0 0.66 0 1 0 C2.28327893 7.11636496 2.0158842 13.29803511 -1 20 C-1.99 20.33 -2.98 20.66 -4 21 C-2.68 14.07 -1.36 7.14 0 0 Z " fill="#607766" transform="translate(258,143)"/>
<path d="M0 0 C1.32 0 2.64 0 4 0 C3.34 3.96 2.68 7.92 2 12 C1.67 12 1.34 12 1 12 C1 9.69 1 7.38 1 5 C0.34 4.67 -0.32 4.34 -1 4 C-0.67 5.98 -0.34 7.96 0 10 C-0.99 9.67 -1.98 9.34 -3 9 C-2.5020163 5.26512223 -2.12508244 3.18762365 0 0 Z " fill="#5C7260" transform="translate(144,144)"/>
<path d="M0 0 C0.33 0.66 0.66 1.32 1 2 C1.66 2 2.32 2 3 2 C3.86355778 3.95421035 4.71559934 5.91351347 5.5625 7.875 C6.03816406 8.96554688 6.51382813 10.05609375 7.00390625 11.1796875 C7.33261719 12.11039063 7.66132813 13.04109375 8 14 C7.67 14.66 7.34 15.32 7 16 C7.99 16.33 8.98 16.66 10 17 C8.68 17 7.36 17 6 17 C4.9932996 14.73192796 3.99448234 12.46092246 3 10.1875 C2.71382812 9.54490234 2.42765625 8.90230469 2.1328125 8.24023438 C0.86288959 5.32243531 0 3.21734286 0 0 Z " fill="#DBAA82" transform="translate(216,109)"/>
<path d="M0 0 C3.5625 0.3125 3.5625 0.3125 5.5 1.6875 C6.5625 3.3125 6.5625 3.3125 6.5625 5.3125 C6.8925 6.3025 7.2225 7.2925 7.5625 8.3125 C6.2425 8.6425 4.9225 8.9725 3.5625 9.3125 C3.418125 8.343125 3.27375 7.37375 3.125 6.375 C2.88687659 3.44763227 2.88687659 3.44763227 1.5625 2.3125 C1.5625 2.6425 1.5625 2.9725 1.5625 3.3125 C-0.7475 2.9825 -3.0575 2.6525 -5.4375 2.3125 C-3.4375 0.3125 -3.4375 0.3125 0 0 Z " fill="#6E6E69" transform="translate(238.4375,274.6875)"/>
<path d="M0 0 C0.7734375 0.495 0.7734375 0.495 1.5625 1 C0.2425 1.33 -1.0775 1.66 -2.4375 2 C-2.7675 1.34 -3.0975 0.68 -3.4375 0 C-5.0875 0 -6.7375 0 -8.4375 0 C-8.1075 0.99 -7.7775 1.98 -7.4375 3 C-6.4475 3.33 -5.4575 3.66 -4.4375 4 C-5.22125 4.28875 -6.005 4.5775 -6.8125 4.875 C-9.53421632 5.84912254 -9.53421632 5.84912254 -11.4375 8 C-11.39625 7.21625 -11.355 6.4325 -11.3125 5.625 C-11.15021266 2.83883881 -11.15021266 2.83883881 -13.4375 1 C-9.20368858 -1.70963931 -4.62909082 -1.89911418 0 0 Z " fill="#7A7A73" transform="translate(73.4375,276)"/>
<path d="M0 0 C0.33 0 0.66 0 1 0 C1.33 7.59 1.66 15.18 2 23 C2.66 22.67 3.32 22.34 4 22 C3.6875 24.375 3.6875 24.375 3 27 C2.01 27.66 1.02 28.32 0 29 C0 19.43 0 9.86 0 0 Z " fill="#5E5E57" transform="translate(137,268)"/>
<path d="M0 0 C2.64 0 5.28 0 8 0 C6.515 1.98 6.515 1.98 5 4 C6.32 4.66 7.64 5.32 9 6 C7.741875 6.04125 6.48375 6.0825 5.1875 6.125 C4.47980469 6.14820313 3.77210937 6.17140625 3.04296875 6.1953125 C1 6 1 6 -2 4 C-2 3.34 -2 2.68 -2 2 C-1.34 2 -0.68 2 0 2 C0 1.34 0 0.68 0 0 Z " fill="#6A6B64" transform="translate(63,292)"/>
<path d="M0 0 C1.32 0.33 2.64 0.66 4 1 C3.40138258 3.35171131 2.73075648 5.6859378 2 8 C1.01 8.495 1.01 8.495 0 9 C-0.66 9.99 -1.32 10.98 -2 12 C-2.17835515 7.45194365 -1.99785435 4.1205746 0 0 Z " fill="#373736" transform="translate(59,278)"/>
<path d="M0 0 C3.73584906 1.47169811 3.73584906 1.47169811 5 4 C5.039992 5.99960012 5.04346799 8.00047242 5 10 C4.54625 9.34 4.0925 8.68 3.625 8 C3.08875 7.34 2.5525 6.68 2 6 C1.34 6 0.68 6 0 6 C-0.66 7.32 -1.32 8.64 -2 10 C-2 7.03 -2 4.06 -2 1 C-1.34 0.67 -0.68 0.34 0 0 Z " fill="#787872" transform="translate(102,279)"/>
<path d="M0 0 C-1.485 1.485 -1.485 1.485 -3 3 C-1.68 3.99 -0.36 4.98 1 6 C-1 7 -1 7 -3.375 6.375 C-6.07391725 5.70250504 -6.07391725 5.70250504 -8.3125 7.4375 C-8.869375 7.953125 -9.42625 8.46875 -10 9 C-10 7.68 -10 6.36 -10 5 C-9.34 5 -8.68 5 -8 5 C-8.33 3.68 -8.66 2.36 -9 1 C-6.04335481 -0.4783226 -3.25770263 -0.06032783 0 0 Z " fill="#6F6D67" transform="translate(269,275)"/>
<path d="M0 0 C2.475 0.99 2.475 0.99 5 2 C4.1028125 2.0928125 4.1028125 2.0928125 3.1875 2.1875 C0.05593552 3.35065252 -0.61862008 5.03003317 -2 8 C-2 9.32 -2 10.64 -2 12 C-3.32 11.34 -4.64 10.68 -6 10 C-4.6302836 6.00499382 -2.74277578 3.19990508 0 0 Z " fill="#DBA883" transform="translate(173,183)"/>
<path d="M0 0 C0.33 0.99 0.66 1.98 1 3 C-1.64 5.97 -4.28 8.94 -7 12 C-7.99 11.34 -8.98 10.68 -10 10 C-6.7 6.7 -3.4 3.4 0 0 Z " fill="#5A765F" transform="translate(135,93)"/>
<path d="M0 0 C0.66 1.32 1.32 2.64 2 4 C2.66 3.67 3.32 3.34 4 3 C6.3329866 2.95977609 8.66706666 2.95679753 11 3 C11 3.33 11 3.66 11 4 C9.35 4.33 7.7 4.66 6 5 C6.66 5.33 7.32 5.66 8 6 C8 6.66 8 7.32 8 8 C6.25 8.6875 6.25 8.6875 4 9 C1.75 7.9375 1.75 7.9375 0 6 C-0.25 2.8125 -0.25 2.8125 0 0 Z " fill="#777670" transform="translate(88,272)"/>
<path d="M0 0 C0.66 0 1.32 0 2 0 C2.33 0.99 2.66 1.98 3 3 C1.90716423 4.03295436 0.80029421 5.05107835 -0.3125 6.0625 C-0.92738281 6.63097656 -1.54226562 7.19945312 -2.17578125 7.78515625 C-2.77777344 8.18605469 -3.37976563 8.58695313 -4 9 C-4.99 8.67 -5.98 8.34 -7 8 C-5.88200014 6.66079162 -4.75538103 5.32877444 -3.625 4 C-2.68527344 2.88625 -2.68527344 2.88625 -1.7265625 1.75 C-1.15679687 1.1725 -0.58703125 0.595 0 0 Z M3 1 C7 2 7 2 7 2 Z " fill="#617D68" transform="translate(186,39)"/>
<path d="M0 0 C0.33 0 0.66 0 1 0 C3.125 7.625 3.125 7.625 2 11 C0.35 11 -1.3 11 -3 11 C-2.32829194 7.1936543 -1.27253436 3.64793184 0 0 Z " fill="#565652" transform="translate(258,284)"/>
<path d="M0 0 C1.32 0 2.64 0 4 0 C3.4140625 6.15234375 3.4140625 6.15234375 3 8 C2.01 8.495 2.01 8.495 1 9 C0.67 8.34 0.34 7.68 0 7 C-0.99 7.495 -0.99 7.495 -2 8 C-1.125 1.125 -1.125 1.125 0 0 Z " fill="#3E3E3B" transform="translate(49,275)"/>
<path d="M0 0 C1.27875 -0.061875 2.5575 -0.12375 3.875 -0.1875 C4.95394531 -0.23970703 4.95394531 -0.23970703 6.0546875 -0.29296875 C6.69664062 -0.19628906 7.33859375 -0.09960938 8 0 C8.66 0.99 9.32 1.98 10 3 C9.67 3.33 9.34 3.66 9 4 C7.47480724 3.91062197 5.95318071 3.75462854 4.4375 3.5625 C3.19806641 3.40974609 3.19806641 3.40974609 1.93359375 3.25390625 C1.29550781 3.17011719 0.65742188 3.08632813 0 3 C0 2.01 0 1.02 0 0 Z " fill="#454542" transform="translate(156,276)"/>
<path d="M0 0 C4.75 0.75 4.75 0.75 7 3 C7.125 6.625 7.125 6.625 7 10 C6.67 10 6.34 10 6 10 C6 8.02 6 6.04 6 4 C5.34 4 4.68 4 4 4 C3.34 5.65 2.68 7.3 2 9 C1.87625 8.360625 1.7525 7.72125 1.625 7.0625 C1.315625 6.0415625 1.315625 6.0415625 1 5 C0.34 4.67 -0.32 4.34 -1 4 C-0.01 3.34 0.98 2.68 2 2 C1.34 1.34 0.68 0.68 0 0 Z " fill="#65665E" transform="translate(202,270)"/>
<path d="M0 0 C4.08718695 -0.24042276 7.17679443 0.57741188 11 2 C10.67 2.66 10.34 3.32 10 4 C6.37 4 2.74 4 -1 4 C-0.67 2.68 -0.34 1.36 0 0 Z " fill="#3B3C3A" transform="translate(65,276)"/>
<path d="M0 0 C4.62 0 9.24 0 14 0 C14 0.33 14 0.66 14 1 C12.88625 1.309375 11.7725 1.61875 10.625 1.9375 C7.2054845 2.82326483 7.2054845 2.82326483 5 4 C2.98072489 3.39421747 0.97746603 2.73080266 -1 2 C-0.67 1.34 -0.34 0.68 0 0 Z " fill="#0F3221" transform="translate(194,183)"/>
<path d="M0 0 C0.33 0.99 0.66 1.98 1 3 C-0.25 5.4375 -0.25 5.4375 -2 8 C-2.515625 8.763125 -3.03125 9.52625 -3.5625 10.3125 C-4.036875 10.869375 -4.51125 11.42625 -5 12 C-5.66 12 -6.32 12 -7 12 C-5.44298069 7.32894208 -2.91552627 3.91294315 0 0 Z " fill="#435C4B" transform="translate(77,69)"/>
<path d="M0 0 C-0.54074373 3.78520613 -2.07572746 5.59177555 -5 8 C-5.99 8 -6.98 8 -8 8 C-7.65978036 4.82461668 -6.97533396 3.97723135 -4.5625 1.75 C-2 0 -2 0 0 0 Z " fill="#D5976D" transform="translate(225,103)"/>
<path d="M0 0 C3.63 0 7.26 0 11 0 C10.67 1.32 10.34 2.64 10 4 C7.25 4.25 7.25 4.25 4 4 C1.625 2 1.625 2 0 0 Z " fill="#3B3C39" transform="translate(115,293)"/>
<path d="M0 0 C1.98 0 3.96 0 6 0 C5.67 1.32 5.34 2.64 5 4 C5 3.34 5 2.68 5 2 C4.071875 2.99 4.071875 2.99 3.125 4 C1 6 1 6 -1 6 C-1.33 6.99 -1.66 7.98 -2 9 C-1.125 2.25 -1.125 2.25 0 0 Z " fill="#63635C" transform="translate(31,269)"/>
<path d="M0 0 C1.65 0 3.3 0 5 0 C1.89973691 3.27742098 -0.97098894 5.93104837 -5 8 C-5.66 8 -6.32 8 -7 8 C-5.74381926 4.23145777 -4.33985294 3.92041544 -1 2 C-0.67 1.34 -0.34 0.68 0 0 Z " fill="#466250" transform="translate(221,218)"/>
<path d="M0 0 C-0.66 0 -1.32 0 -2 0 C-2.33 0.66 -2.66 1.32 -3 2 C-7.62 2 -12.24 2 -17 2 C-17 2.66 -17 3.32 -17 4 C-17.99 3.67 -18.98 3.34 -20 3 C-19.67 2.01 -19.34 1.02 -19 0 C-16.58373582 -0.19534474 -14.16734771 -0.38153404 -11.75 -0.5625 C-10.72712891 -0.64661133 -10.72712891 -0.64661133 -9.68359375 -0.73242188 C-6.2579419 -0.98186254 -3.27298823 -1.13879745 0 0 Z " fill="#8B9C8B" transform="translate(211,182)"/>
<path d="M0 0 C0.33 0.66 0.66 1.32 1 2 C0.67 2.66 0.34 3.32 0 4 C0.99 4.33 1.98 4.66 3 5 C-1.625 8 -1.625 8 -5 8 C-4.45773019 4.20411134 -2.79872437 2.52788007 0 0 Z " fill="#C2AD75" transform="translate(87,167)"/>
<path d="M0 0 C0.928125 0.0825 1.85625 0.165 2.8125 0.25 C2.4825 1.57 2.1525 2.89 1.8125 4.25 C-0.8275 4.25 -3.4675 4.25 -6.1875 4.25 C-4.36434338 1.00883268 -3.82500054 0.30000004 0 0 Z " fill="#3F3F3C" transform="translate(303.1875,292.75)"/>
<path d="M0 0 C2.69082872 0.17635452 5.32851446 0.61835921 8 1 C8 2.32 8 3.64 8 5 C6.02 5.99 6.02 5.99 4 7 C4.33 6.01 4.66 5.02 5 4 C2.1315587 1.89767656 2.1315587 1.89767656 -1 1 C-0.67 0.67 -0.34 0.34 0 0 Z " fill="#D7BF77" transform="translate(109,131)"/>
<path d="M0 0 C1.4606285 2.64738916 2 3.89448334 2 7 C-0.95664519 8.4783226 -3.74229737 8.06032783 -7 8 C-7 7.67 -7 7.34 -7 7 C-5.02 7 -3.04 7 -1 7 C-1 5.68 -1 4.36 -1 3 C-2.98 3 -4.96 3 -7 3 C-7 2.67 -7 2.34 -7 2 C-4.69 1.34 -2.38 0.68 0 0 Z " fill="#84837B" transform="translate(99,290)"/>
<path d="M0 0 C2.31 0 4.62 0 7 0 C6.625 2.4375 6.625 2.4375 6 5 C5.01 5.495 5.01 5.495 4 6 C4 5.34 4 4.68 4 4 C3.34 4 2.68 4 2 4 C2 3.34 2 2.68 2 2 C1.34 2 0.68 2 0 2 C0 1.34 0 0.68 0 0 Z " fill="#565651" transform="translate(12,269)"/>
<path d="M0 0 C-0.66 0 -1.32 0 -2 0 C-2.33 0.66 -2.66 1.32 -3 2 C-4.32 1.67 -5.64 1.34 -7 1 C-7 1.66 -7 2.32 -7 3 C-11.29 2.67 -15.58 2.34 -20 2 C-20 1.67 -20 1.34 -20 1 C-17.41765641 0.63667026 -14.83460218 0.28405133 -12.25 -0.0625 C-11.52039063 -0.16626953 -10.79078125 -0.27003906 -10.0390625 -0.37695312 C-6.3892704 -0.85806208 -3.52327086 -1.04532842 0 0 Z " fill="#7E9280" transform="translate(189,165)"/>
<path d="M0 0 C-0.33 0.99 -0.66 1.98 -1 3 C-4.63 3 -8.26 3 -12 3 C-7.97869817 0.31913211 -4.73968522 -1.57989507 0 0 Z " fill="#CB7447" transform="translate(187,114)"/>
<path d="M0 0 C0.33 0.66 0.66 1.32 1 2 C-0.68474722 5.36949443 -1.8191658 6.87944386 -5 9 C-5.99 8.67 -6.98 8.34 -8 8 C-5.36 5.36 -2.72 2.72 0 0 Z " fill="#5F7863" transform="translate(162,65)"/>
<path d="M0 0 C0.33 0.66 0.66 1.32 1 2 C2.32 2 3.64 2 5 2 C5.33 3.32 5.66 4.64 6 6 C5.01 6 4.02 6 3 6 C2.67 6.99 2.34 7.98 2 9 C0 3.375 0 3.375 0 0 Z " fill="#777672" transform="translate(16,280)"/>
<path d="M0 0 C0.66 0.33 1.32 0.66 2 1 C-2.625 6.75 -2.625 6.75 -6 9 C-8.1875 8.625 -8.1875 8.625 -10 8 C-9.36191406 7.50628906 -8.72382813 7.01257813 -8.06640625 6.50390625 C-7.24011719 5.86324219 -6.41382813 5.22257813 -5.5625 4.5625 C-4.73878906 3.92441406 -3.91507813 3.28632813 -3.06640625 2.62890625 C-1.12498733 1.16417803 -1.12498733 1.16417803 0 0 Z " fill="#647B69" transform="translate(225,206)"/>
<path d="M0 0 C0.33 0.66 0.66 1.32 1 2 C0.26821134 4.07196631 -0.55899003 6.1108552 -1.4375 8.125 C-1.91058594 9.22070312 -2.38367188 10.31640625 -2.87109375 11.4453125 C-3.24363281 12.28835937 -3.61617188 13.13140625 -4 14 C-4.66 12.68 -5.32 11.36 -6 10 C-5.34 10 -4.68 10 -4 10 C-3.896875 8.906875 -3.79375 7.81375 -3.6875 6.6875 C-3.02692273 3.14440371 -2.7972908 2.06756277 0 0 Z " fill="#597161" transform="translate(75,89)"/>
<path d="M0 0 C5.56890517 0.47986031 10.67067568 1.29915181 16 3 C14.02 3.99 14.02 3.99 12 5 C11.67 4.34 11.34 3.68 11 3 C9.68 3.33 8.36 3.66 7 4 C7 3.34 7 2.68 7 2 C6.401875 2.226875 5.80375 2.45375 5.1875 2.6875 C4.465625 2.790625 3.74375 2.89375 3 3 C1.36328125 1.51953125 1.36328125 1.51953125 0 0 Z " fill="#657A6A" transform="translate(178,28)"/>
<path d="M0 0 C0.66 0 1.32 0 2 0 C2 0.66 2 1.32 2 2 C2.66 2.33 3.32 2.66 4 3 C3.67 4.98 3.34 6.96 3 9 C2.01 9 1.02 9 0 9 C0 6.03 0 3.06 0 0 Z " fill="#40403F" transform="translate(85,269)"/>
<path d="M0 0 C2 3 2 3 2 6 C-3.61 5.67 -9.22 5.34 -15 5 C-15 4.67 -15 4.34 -15 4 C-10.05 4 -5.1 4 0 4 C0 2.68 0 1.36 0 0 Z " fill="#383737" transform="translate(167,282)"/>
<path d="M0 0 C0.33 1.32 0.66 2.64 1 4 C-2.41099168 4 -5.63088314 3.50854594 -9 3 C-7.14340032 -0.71319936 -3.69365381 -0.09982848 0 0 Z " fill="#3C3D3A" transform="translate(241,276)"/>
<path d="M0 0 C0 1.98 0 3.96 0 6 C-1.98 6.33 -3.96 6.66 -6 7 C-5.39816251 4.97954558 -4.72693904 2.97888961 -4 1 C-2 0 -2 0 0 0 Z " fill="#373836" transform="translate(208,274)"/>
<path d="M0 0 C0.99 0 1.98 0 3 0 C3 2.97 3 5.94 3 9 C2.01 8.67 1.02 8.34 0 8 C0 5.36 0 2.72 0 0 Z " fill="#414140" transform="translate(228,269)"/>
<path d="M0 0 C-0.33 1.32 -0.66 2.64 -1 4 C-3.31 4 -5.62 4 -8 4 C-7 1 -7 1 -4.5625 -0.25 C-2 -1 -2 -1 0 0 Z " fill="#393A37" transform="translate(73,293)"/>
<path d="M0 0 C1.47118907 3.82509158 0.45442741 6.28312995 -1 10 C-1.33 10.66 -1.66 11.32 -2 12 C-2.66 12 -3.32 12 -4 12 C-3.52309796 10.37433394 -3.04340334 8.74948689 -2.5625 7.125 C-2.29566406 6.22007812 -2.02882813 5.31515625 -1.75390625 4.3828125 C-1 2 -1 2 0 0 Z " fill="#E3D49C" transform="translate(88,150)"/>
<path d="M0 0 C0.33 0.66 0.66 1.32 1 2 C1.99 1.67 2.98 1.34 4 1 C4.66 2.65 5.32 4.3 6 6 C5.01 5.67 4.02 5.34 3 5 C3 4.34 3 3.68 3 3 C2.01 3.495 2.01 3.495 1 4 C0.34227572 7.02934491 0.34227572 7.02934491 0 10 C-0.33 10 -0.66 10 -1 10 C-1.02689216 8.52093108 -1.04634621 7.04172517 -1.0625 5.5625 C-1.07410156 4.73878906 -1.08570313 3.91507813 -1.09765625 3.06640625 C-1 1 -1 1 0 0 Z " fill="#0E2F1E" transform="translate(220,142)"/>
<path d="M0 0 C0.99 0.66 1.98 1.32 3 2 C3 2.66 3 3.32 3 4 C-0.07115285 6.95303159 -2.8333396 7.52651586 -7 8 C-6.67 7.01 -6.34 6.02 -6 5 C-4.02 5.495 -4.02 5.495 -2 6 C-2 5.34 -2 4.68 -2 4 C-1.34 4 -0.68 4 0 4 C0 2.68 0 1.36 0 0 Z " fill="#D2C494" transform="translate(139,130)"/>
<path d="M0 0 C0.33 0.99 0.66 1.98 1 3 C-0.32 4.32 -1.64 5.64 -3 7 C-3.99 6.67 -4.98 6.34 -6 6 C-5.34 4.68 -4.68 3.36 -4 2 C-2.68 2 -1.36 2 0 2 C0 1.34 0 0.68 0 0 Z " fill="#595954" transform="translate(105,289)"/>
<path d="M0 0 C0.99 0 1.98 0 3 0 C1.60667426 3.36720387 0.0210714 4.9859524 -3 7 C-2.25 2.25 -2.25 2.25 0 0 Z " fill="#3B5E47" transform="translate(139,89)"/>
<path d="M0 0 C1 3 1 3 0.00390625 5.04296875 C-0.47175781 5.75066406 -0.94742188 6.45835938 -1.4375 7.1875 C-1.91058594 7.90292969 -2.38367188 8.61835937 -2.87109375 9.35546875 C-3.24363281 9.89816406 -3.61617188 10.44085938 -4 11 C-4.65234375 9.234375 -4.65234375 9.234375 -5 7 C-4.00390625 5.078125 -4.00390625 5.078125 -2.5625 3.25 C-2.08941406 2.63640625 -1.61632812 2.0228125 -1.12890625 1.390625 C-0.75636719 0.93171875 -0.38382812 0.4728125 0 0 Z " fill="#47614F" transform="translate(83,74)"/>
<path d="M0 0 C3.96 0.33 7.92 0.66 12 1 C12.33 1.99 12.66 2.98 13 4 C11.20676747 3.71812064 9.41542874 3.4241719 7.625 3.125 C6.62726563 2.96257812 5.62953125 2.80015625 4.6015625 2.6328125 C2 2 2 2 0 0 Z " fill="#768B78" transform="translate(128,234)"/>
<path d="M0 0 C1.65 0 3.3 0 5 0 C5 0.66 5 1.32 5 2 C3.68 2 2.36 2 1 2 C1.33 3.32 1.66 4.64 2 6 C1.01 5.67 0.02 5.34 -1 5 C-0.67 3.35 -0.34 1.7 0 0 Z " fill="#274433" transform="translate(136,163)"/>
<path d="M0 0 C0.99 0.33 1.98 0.66 3 1 C2.67 2.65 2.34 4.3 2 6 C0.68 6 -0.64 6 -2 6 C-1.34 4.02 -0.68 2.04 0 0 Z " fill="#586F5E" transform="translate(203,136)"/>
<path d="M0 0 C2.475 0.495 2.475 0.495 5 1 C5 2.65 5 4.3 5 6 C4.34 5.34 3.68 4.68 3 4 C2.34 4.66 1.68 5.32 1 6 C0.67 4.02 0.34 2.04 0 0 Z " fill="#3D3D3B" transform="translate(270,282)"/>
<path d="M0 0 C0.99 0.33 1.98 0.66 3 1 C2.01 1.66 1.02 2.32 0 3 C-0.73343428 6.06556598 -0.73343428 6.06556598 -1 9 C-1.66 8.67 -2.32 8.34 -3 8 C-2.25 2.25 -2.25 2.25 0 0 Z " fill="#DFD097" transform="translate(118,111)"/>
<path d="M0 0 C0.66 0.99 1.32 1.98 2 3 C0.75 4.5625 0.75 4.5625 -1 6 C-3.1875 5.6875 -3.1875 5.6875 -5 5 C-3.625 3.5 -3.625 3.5 -2 2 C-1.34 2 -0.68 2 0 2 C0 1.34 0 0.68 0 0 Z " fill="#67816C" transform="translate(153,74)"/>
<path d="M0 0 C0.99 0.99 1.98 1.98 3 3 C1.625 4.5 1.625 4.5 0 6 C-0.66 6 -1.32 6 -2 6 C-1.125 1.125 -1.125 1.125 0 0 Z " fill="#51524D" transform="translate(271,291)"/>
<path d="M0 0 C1.98 0 3.96 0 6 0 C6 0.66 6 1.32 6 2 C6.66 2 7.32 2 8 2 C8 2.66 8 3.32 8 4 C5.36 3.67 2.72 3.34 0 3 C0 2.01 0 1.02 0 0 Z " fill="#383936" transform="translate(298,276)"/>
<path d="M0 0 C4.95 0.99 4.95 0.99 10 2 C10 2.33 10 2.66 10 3 C7.03 3 4.06 3 1 3 C0.67 2.01 0.34 1.02 0 0 Z " fill="#C4AB6B" transform="translate(104,148)"/>
<path d="M0 0 C3.77545388 1.09068668 6.47043472 1.9083091 9 5 C7.35 4.67 5.7 4.34 4 4 C4 3.34 4 2.68 4 2 C2.02 2 0.04 2 -2 2 C-1.34 1.34 -0.68 0.68 0 0 Z " fill="#627765" transform="translate(230,128)"/>
<path d="M0 0 C0.99 0.33 1.98 0.66 3 1 C1.35 2.65 -0.3 4.3 -2 6 C-2 2 -2 2 0 0 Z " fill="#43604D" transform="translate(226,130)"/>
<path d="M0 0 C0.66 0.99 1.32 1.98 2 3 C1.01 3.99 0.02 4.98 -1 6 C-1.99 5.67 -2.98 5.34 -4 5 C-2.68 3.35 -1.36 1.7 0 0 Z " fill="#476151" transform="translate(85,59)"/>
<path d="M0 0 C1.98 0.495 1.98 0.495 4 1 C3.34 2.32 2.68 3.64 2 5 C1.01 4.67 0.02 4.34 -1 4 C-0.67 2.68 -0.34 1.36 0 0 Z " fill="#4C4C49" transform="translate(59,278)"/>
<path d="M0 0 C1.98 0 3.96 0 6 0 C6 1.32 6 2.64 6 4 C5.01 4 4.02 4 3 4 C3 3.34 3 2.68 3 2 C2.01 1.67 1.02 1.34 0 1 C0 0.67 0 0.34 0 0 Z " fill="#3E3E3B" transform="translate(93,276)"/>
<path d="M0 0 C0.66 0.99 1.32 1.98 2 3 C-1.75 6 -1.75 6 -4 6 C-2.84826645 3.53199953 -1.95216435 1.95216435 0 0 Z " fill="#DEAB84" transform="translate(206,75)"/>
<path d="" fill="#E0D3BD" transform="translate(0,0)"/>
<path d="" fill="#DDD6C2" transform="translate(0,0)"/>
<path d="" fill="#E2D6BE" transform="translate(0,0)"/>
<path d="" fill="#DED6C3" transform="translate(0,0)"/>
</svg>
